<svg width="20" height="30" viewBox="0 0 20 30" fill="none" xmlns="http://www.w3.org/2000/svg">
<g clip-path="url(#clip0_8_48)">
<path d="M5.00101 29.9941C7.76046 29.9941 10 27.7545 10 24.9951V19.9961H5.00101C2.24157 19.9961 0.00201416 22.2356 0.00201416 24.9951C0.00201416 27.7545 2.24157 29.9941 5.00101 29.9941Z" fill="#0ACF83"/>
<path d="M0.00201416 14.997C0.00201416 12.2376 2.24157 9.99805 5.00101 9.99805H10V19.996H5.00101C2.24157 19.996 0.00201416 17.7565 0.00201416 14.997Z" fill="#A259FF"/>
<path d="M0.00201416 4.999C0.00201416 2.23955 2.24157 0 5.00102 0H10V9.99801H5.00102C2.24157 9.99801 0.00201416 7.75845 0.00201416 4.999Z" fill="#F24E1E"/>
<path d="M10 0H14.999C17.7584 0 19.998 2.23955 19.998 4.999C19.998 7.75845 17.7584 9.99801 14.999 9.99801H10V0Z" fill="#FF7262"/>
<path d="M19.998 14.997C19.998 17.7565 17.7584 19.996 14.999 19.996C12.2396 19.996 10 17.7565 10 14.997C10 12.2376 12.2396 9.99805 14.999 9.99805C17.7584 9.99805 19.998 12.2376 19.998 14.997Z" fill="#1ABCFE"/>
</g>
<defs>
<clipPath id="clip0_8_48">
<rect width="20" height="29.994" fill="white"/>
</clipPath>
</defs>
</svg>
