<svg width="35" height="27" viewBox="0 0 35 27" fill="none" xmlns="http://www.w3.org/2000/svg">
<g clip-path="url(#clip0_11_76)">
<path d="M30.1182 15.078C28.8978 15.0844 27.8372 15.3783 26.9491 15.8127C26.6233 15.1674 26.2974 14.5924 26.2399 14.1707C26.176 13.6788 26.0994 13.3785 26.176 12.7907C26.2527 12.2029 26.5977 11.3659 26.5913 11.302C26.585 11.2381 26.5147 10.9378 25.8119 10.9314C25.1091 10.925 24.5021 11.0656 24.4318 11.2509C24.3615 11.4361 24.2273 11.8578 24.1379 12.2923C24.0165 12.9312 22.7323 15.2122 21.9975 16.4069C21.7611 15.9405 21.5567 15.5316 21.5119 15.2058C21.448 14.7138 21.3714 14.4135 21.448 13.8257C21.5247 13.2379 21.8697 12.4009 21.8633 12.337C21.857 12.2731 21.7867 11.9728 21.0839 11.9665C20.3811 11.9601 19.7741 12.1006 19.7038 12.2859C19.6335 12.4712 19.5568 12.9057 19.4099 13.3274C19.2629 13.749 17.557 17.557 17.1098 18.5409C16.8798 19.0457 16.6817 19.4482 16.5411 19.7229C16.5411 19.7229 16.5348 19.7421 16.5156 19.774C16.3942 20.0104 16.3239 20.1382 16.3239 20.1382C16.3239 20.1382 16.3239 20.1382 16.3239 20.1446C16.2281 20.3171 16.1259 20.4769 16.0747 20.4769C16.0364 20.4769 15.9661 20.0168 16.0875 19.3907C16.3431 18.0681 16.9501 16.0108 16.9437 15.9405C16.9437 15.9022 17.0587 15.5444 16.5475 15.3591C16.0492 15.1738 15.8703 15.4805 15.8256 15.4805C15.7808 15.4805 15.7489 15.5891 15.7489 15.5891C15.7489 15.5891 16.3047 13.2762 14.6883 13.2762C13.6788 13.2762 12.2859 14.3816 11.5959 15.3783C11.1615 15.6147 10.235 16.1194 9.24469 16.6625C8.86773 16.8734 8.47799 17.0842 8.11381 17.2823C8.08825 17.2567 8.0627 17.2248 8.03714 17.1992C6.08205 15.1099 2.46577 13.634 2.61911 10.8292C2.67661 9.8069 3.02801 7.12344 9.56415 3.86495C14.9439 1.21344 19.2246 1.94819 19.9658 3.57744C21.0264 5.9031 17.672 10.2222 12.1134 10.8483C9.99223 11.0847 8.88051 10.2669 8.59939 9.96024C8.30548 9.64078 8.26076 9.62162 8.15214 9.68551C7.97325 9.78135 8.08825 10.0689 8.15214 10.235C8.31826 10.6694 9.00191 11.4361 10.1583 11.8131C11.1806 12.1453 13.666 12.3306 16.6753 11.1678C20.0424 9.86441 22.6748 6.24173 21.9017 3.20686C21.1286 0.127272 16.0172 -0.88861 11.1806 0.830083C8.30548 1.85235 5.18756 3.46243 2.94495 5.55809C0.280663 8.04987 -0.141023 10.2158 0.0314849 11.1231C0.651236 14.3432 5.09172 16.4389 6.86792 17.9915C6.77847 18.0426 6.69541 18.0873 6.62513 18.1256C5.73703 18.5665 2.35076 20.3363 1.50739 22.2083C0.549009 24.3295 1.66073 25.8502 2.39548 26.0546C4.67642 26.6872 7.02126 25.5499 8.27993 23.6715C9.5386 21.793 9.38526 19.3524 8.80384 18.2343C8.79745 18.2215 8.79106 18.2087 8.77828 18.1959C9.00829 18.0617 9.24469 17.9212 9.47471 17.787C9.92834 17.5187 10.3756 17.2695 10.7589 17.065C10.5417 17.6592 10.382 18.3684 10.3053 19.3907C10.2095 20.5919 10.7014 22.1508 11.3467 22.7642C11.6343 23.0325 11.9729 23.0389 12.1901 23.0389C12.944 23.0389 13.2827 22.4128 13.6596 21.6716C14.1196 20.7644 14.5349 19.7102 14.5349 19.7102C14.5349 19.7102 14.0174 22.5597 15.423 22.5597C15.9342 22.5597 16.4517 21.8953 16.6817 21.5566C16.6817 21.563 16.6817 21.563 16.6817 21.563C16.6817 21.563 16.6945 21.5439 16.72 21.4991C16.7712 21.4161 16.8031 21.365 16.8031 21.365C16.8031 21.365 16.8031 21.3586 16.8031 21.3522C17.0076 20.9944 17.4676 20.183 18.1512 18.8348C19.0329 17.097 19.8827 14.9246 19.8827 14.9246C19.8827 14.9246 19.9594 15.455 20.2213 16.3367C20.3747 16.8542 20.6941 17.4228 20.9497 17.9723C20.7452 18.2598 20.6175 18.4195 20.6175 18.4195C20.6175 18.4195 20.6175 18.4195 20.6238 18.4259C20.4577 18.6432 20.2788 18.8796 20.0808 19.1096C19.3843 19.9402 18.5537 20.8922 18.4387 21.1669C18.3046 21.4927 18.3365 21.7291 18.5921 21.9208C18.7774 22.0614 19.1096 22.0805 19.4482 22.0614C20.0744 22.0167 20.5152 21.8633 20.7325 21.7675C21.0711 21.6461 21.4672 21.4608 21.8378 21.1861C22.5214 20.6813 22.9367 19.9593 22.8984 19.0073C22.8792 18.4834 22.7067 17.9595 22.4959 17.4675C22.5598 17.3781 22.6173 17.2887 22.6812 17.1992C23.7609 15.6211 24.5979 13.8896 24.5979 13.8896C24.5979 13.8896 24.6746 14.4199 24.9365 15.3016C25.0643 15.7489 25.3263 16.2344 25.5563 16.7072C24.5404 17.5314 23.9143 18.4898 23.6906 19.116C23.2881 20.2788 23.6012 20.8027 24.1954 20.9241C24.4637 20.9816 24.8471 20.8538 25.1282 20.7324C25.486 20.6174 25.9077 20.4194 26.3102 20.1255C26.9939 19.6207 27.6519 18.9179 27.6136 17.9659C27.5944 17.5314 27.4794 17.1034 27.3197 16.6881C28.1823 16.3303 29.294 16.1322 30.7124 16.2983C33.7536 16.6561 34.3542 18.5537 34.2392 19.3524C34.1242 20.151 33.4853 20.5855 33.2744 20.7196C33.0636 20.8538 32.9933 20.8985 33.0125 20.9944C33.038 21.1349 33.1403 21.1286 33.3192 21.103C33.5683 21.0583 34.9165 20.4577 34.974 18.9882C35.0698 17.1098 33.2808 15.0588 30.1182 15.078ZM6.65707 22.9878C5.64758 24.0868 4.24196 24.5021 3.63499 24.1506C2.98329 23.7737 3.23886 22.1508 4.47836 20.988C5.23228 20.2788 6.20344 19.6207 6.84875 19.2182C6.9957 19.1287 7.21293 19.001 7.47489 18.8412C7.51961 18.8157 7.54517 18.8029 7.54517 18.8029C7.59628 18.7709 7.6474 18.739 7.69851 18.7071C8.15214 20.3682 7.71768 21.8314 6.65707 22.9878ZM14.0046 17.9915C13.6532 18.8476 12.9185 21.0391 12.4712 20.9177C12.0879 20.8155 11.8515 19.1543 12.3946 17.5123C12.6693 16.6881 13.2507 15.7041 13.5893 15.3208C14.1388 14.7074 14.7458 14.503 14.8927 14.7521C15.078 15.078 14.2219 17.4548 14.0046 17.9915ZM20.068 20.8922C19.921 20.9688 19.7805 21.0199 19.7166 20.9816C19.6719 20.956 19.7805 20.8538 19.7805 20.8538C19.7805 20.8538 20.5408 20.036 20.8411 19.6654C21.0136 19.4482 21.218 19.1926 21.4353 18.9051C21.4353 18.9307 21.4353 18.9626 21.4353 18.9882C21.4353 19.9657 20.4897 20.6238 20.068 20.8922ZM24.7449 19.8252C24.6362 19.7485 24.6554 19.4929 25.0196 18.6943C25.1602 18.3812 25.4924 17.8573 26.061 17.3525C26.1249 17.557 26.1697 17.7551 26.1633 17.9403C26.1569 19.1735 25.2752 19.6335 24.7449 19.8252Z" fill="#CD6799"/>
</g>
<defs>
<clipPath id="clip0_11_76">
<rect width="35" height="26.234" fill="white"/>
</clipPath>
</defs>
</svg>
