<svg width="323" height="297" viewBox="0 0 323 297" fill="none" xmlns="http://www.w3.org/2000/svg">
<path d="M298.409 78.75H160.855C147.43 78.75 154.567 78.75 122.307 78.75C91.2842 78.75 117.149 80.4375 115.777 78.75L90.5429 78.75C67.2407 78.75 95.5537 78.75 127.788 78.75C201.559 78.75 160.855 78.75 160.855 78.75H23.9847C16.1469 78.75 9.78787 85.0056 9.78787 92.6626V204.056C9.78787 211.76 16.1469 217.969 23.9847 217.969H298.409C306.241 217.969 312.6 211.76 312.6 204.056V92.6626C312.6 85.0056 306.241 78.75 298.409 78.75ZM277.656 88.0405H286.972C294.22 88.0405 294.22 97.3311 286.972 97.3311H277.656C270.414 97.3311 270.414 88.0405 277.656 88.0405ZM247.395 88.0405H256.711C263.959 88.0405 263.959 97.3311 256.711 97.3311H247.395C240.152 97.3311 240.152 88.0405 247.395 88.0405ZM262.132 139.069V148.359C262.132 150.944 259.866 153.028 257.105 153.028H247.001C246.334 153.029 245.673 152.909 245.057 152.675C244.44 152.441 243.88 152.097 243.408 151.663C242.936 151.229 242.562 150.714 242.308 150.147C242.053 149.58 241.923 148.973 241.924 148.359V139.069C241.924 136.53 244.19 134.447 247.001 134.447H257.105C258.436 134.452 259.712 134.94 260.653 135.806C261.595 136.672 262.126 137.845 262.132 139.069ZM231.871 111.244C231.871 108.659 234.137 106.622 236.897 106.622H247.001C249.762 106.622 252.028 108.659 252.028 111.244V120.534C252.022 121.759 251.491 122.931 250.55 123.797C249.608 124.663 248.333 125.151 247.001 125.156H236.897C235.566 125.151 234.29 124.663 233.349 123.797C232.407 122.931 231.876 121.759 231.871 120.534V111.244ZM217.083 88.0405H226.4C233.647 88.0405 233.647 97.3311 226.4 97.3311H217.083C209.841 97.3311 209.841 88.0405 217.083 88.0405ZM231.871 139.069V148.359C231.871 150.944 229.605 153.028 226.793 153.028H216.69C213.929 153.028 211.663 150.944 211.663 148.359V139.069C211.668 137.845 212.199 136.672 213.141 135.806C214.083 134.94 215.358 134.452 216.69 134.447H226.793C229.605 134.447 231.871 136.53 231.871 139.069ZM206.611 106.622H216.69C217.354 106.615 218.013 106.73 218.629 106.96C219.244 107.19 219.805 107.529 220.277 107.959C220.749 108.389 221.124 108.9 221.379 109.464C221.635 110.028 221.767 110.633 221.767 111.244V120.534C221.767 123.073 219.501 125.156 216.69 125.156H206.611C205.275 125.156 203.994 124.67 203.048 123.804C202.101 122.938 201.566 121.762 201.559 120.534V111.244C201.558 110.635 201.689 110.031 201.943 109.469C202.197 108.906 202.569 108.395 203.039 107.966C203.508 107.536 204.066 107.196 204.679 106.965C205.292 106.735 205.949 106.618 206.611 106.622ZM191.48 166.94C191.48 164.356 193.746 162.272 196.532 162.272H206.611C209.397 162.272 211.663 164.356 211.663 166.94V176.231C211.663 178.769 209.397 180.853 206.611 180.853H196.532C195.197 180.853 193.916 180.367 192.969 179.501C192.022 178.635 191.487 177.459 191.48 176.231V166.94ZM186.428 153.028C185.763 153.027 185.105 152.905 184.491 152.67C183.877 152.434 183.319 152.09 182.85 151.656C182.381 151.223 182.009 150.708 181.757 150.143C181.504 149.577 181.375 148.971 181.377 148.359V139.069C181.377 136.53 183.643 134.447 186.428 134.447H196.532C197.864 134.452 199.139 134.94 200.081 135.806C201.022 136.672 201.554 137.845 201.559 139.069V148.359C201.559 150.944 199.293 153.028 196.532 153.028H186.428ZM186.822 88.0405H196.139C203.386 88.0405 203.386 97.3311 196.139 97.3311H186.822C179.58 97.3311 179.58 88.0405 186.822 88.0405ZM171.298 111.244C171.298 108.659 173.564 106.622 176.325 106.622H186.428C187.091 106.618 187.748 106.735 188.361 106.965C188.974 107.196 189.531 107.536 190.001 107.966C190.47 108.395 190.843 108.906 191.097 109.469C191.351 110.031 191.481 110.635 191.48 111.244V120.534C191.48 123.073 189.214 125.156 186.428 125.156H176.325C174.993 125.151 173.718 124.663 172.776 123.797C171.835 122.931 171.303 121.759 171.298 120.534V111.244ZM181.377 166.94V176.231C181.377 178.769 179.111 180.853 176.325 180.853H166.246C164.911 180.853 163.629 180.367 162.683 179.501C161.736 178.635 161.201 177.459 161.194 176.231V166.94C161.194 164.356 163.46 162.272 166.246 162.272H176.325C179.111 162.272 181.377 164.356 181.377 166.94ZM171.298 148.359C171.298 150.944 169.032 153.028 166.246 153.028H156.142C155.477 153.027 154.819 152.905 154.205 152.67C153.591 152.434 153.033 152.09 152.564 151.656C152.095 151.223 151.723 150.708 151.47 150.143C151.217 149.577 151.088 148.971 151.09 148.359V139.069C151.09 136.53 153.356 134.447 156.142 134.447H166.246C169.032 134.447 171.298 136.53 171.298 139.069V148.359ZM156.536 88.0405H165.852C173.1 88.0405 173.1 97.3311 165.852 97.3311H156.536C149.294 97.3311 149.294 88.0405 156.536 88.0405ZM141.012 111.244C141.011 110.635 141.141 110.031 141.395 109.469C141.649 108.906 142.022 108.395 142.491 107.966C142.961 107.536 143.518 107.196 144.131 106.965C144.745 106.735 145.401 106.618 146.064 106.622H156.142C156.805 106.618 157.461 106.735 158.074 106.965C158.687 107.196 159.245 107.536 159.714 107.966C160.184 108.395 160.556 108.906 160.81 109.469C161.064 110.031 161.195 110.635 161.194 111.244V120.534C161.194 123.073 158.928 125.156 156.142 125.156H146.064C144.728 125.156 143.447 124.67 142.5 123.804C141.554 122.938 141.018 121.762 141.012 120.534V111.244ZM151.09 166.94V176.231C151.085 177.455 150.554 178.628 149.612 179.494C148.671 180.36 147.395 180.848 146.064 180.853H135.96C134.624 180.853 133.343 180.367 132.396 179.501C131.45 178.635 130.915 177.459 130.908 176.231V166.94C130.908 164.356 133.174 162.272 135.96 162.272H146.064C148.824 162.272 151.09 164.356 151.09 166.94ZM141.012 148.359C141.012 150.944 138.746 153.028 135.96 153.028H125.856C123.095 153.028 120.829 150.944 120.829 148.359V139.069C120.835 137.845 121.366 136.672 122.307 135.806C123.249 134.94 124.524 134.452 125.856 134.447H135.96C138.746 134.447 141.012 136.53 141.012 139.069V148.359ZM126.25 88.0405H135.566C142.813 88.0405 142.813 97.3311 135.566 97.3311H126.25C119.007 97.3311 119.007 88.0405 126.25 88.0405ZM110.725 111.244C110.725 110.635 110.855 110.031 111.109 109.469C111.363 108.906 111.735 108.395 112.205 107.966C112.675 107.536 113.232 107.196 113.845 106.965C114.458 106.735 115.115 106.618 115.777 106.622H125.856C126.518 106.618 127.175 106.735 127.788 106.965C128.401 107.196 128.959 107.536 129.428 107.966C129.898 108.395 130.27 108.906 130.524 109.469C130.778 110.031 130.909 110.635 130.908 111.244V120.534C130.908 123.073 128.642 125.156 125.856 125.156H115.777C114.442 125.156 113.161 124.67 112.214 123.804C111.267 122.938 110.732 121.762 110.725 120.534V111.244ZM95.9633 88.0405H105.305C112.527 88.0405 112.527 97.3311 105.305 97.3311H95.9633C88.721 97.3311 88.721 88.0405 95.9633 88.0405ZM110.725 139.069V148.359C110.725 150.944 108.459 153.028 105.673 153.028H95.5948C94.9297 153.027 94.2713 152.905 93.6573 152.67C93.0433 152.434 92.4858 152.09 92.0166 151.656C91.5474 151.223 91.1758 150.708 90.9229 150.143C90.6701 149.577 90.5409 148.971 90.5429 148.359V139.069C90.5429 136.53 92.809 134.447 95.5948 134.447H105.673C108.459 134.447 110.725 136.53 110.725 139.069ZM85.491 106.622H95.5948C96.2561 106.618 96.9115 106.735 97.5232 106.966C98.1349 107.197 98.6906 107.537 99.1582 107.967C99.6258 108.397 99.9959 108.908 100.247 109.471C100.498 110.033 100.626 110.636 100.622 111.244V120.534C100.62 121.76 100.09 122.935 99.1478 123.801C98.2054 124.668 96.9276 125.155 95.5948 125.156H85.491C84.1555 125.156 82.8743 124.67 81.9276 123.804C80.9809 122.938 80.4457 121.762 80.4391 120.534V111.244C80.4384 110.635 80.5688 110.031 80.8227 109.469C81.0767 108.906 81.4492 108.395 81.9188 107.966C82.3884 107.536 82.9457 107.196 83.5588 106.965C84.1719 106.735 84.8286 106.618 85.491 106.622ZM65.677 88.0405H75.0187C82.2661 88.0405 82.2661 97.3311 75.0187 97.3311H65.677C58.4599 97.3311 58.4599 88.0405 65.677 88.0405ZM80.4391 139.069V148.359C80.4391 150.944 78.173 153.028 75.3871 153.028H65.3085C64.6434 153.027 63.985 152.905 63.371 152.67C62.757 152.434 62.1995 152.09 61.7303 151.656C61.2611 151.223 60.8895 150.708 60.6366 150.143C60.3838 149.577 60.2546 148.971 60.2566 148.359V139.069C60.2566 136.53 62.5227 134.447 65.3085 134.447H75.3871C78.173 134.447 80.4391 136.53 80.4391 139.069ZM55.2047 106.622H65.3085C65.971 106.618 66.6276 106.735 67.2407 106.965C67.8538 107.196 68.4112 107.536 68.8808 107.966C69.3503 108.395 69.7228 108.906 69.9768 109.469C70.2307 110.031 70.3612 110.635 70.3605 111.244V120.534C70.3605 123.073 68.0944 125.156 65.3085 125.156H55.2047C53.8692 125.156 52.588 124.67 51.6413 123.804C50.6946 122.938 50.1594 121.762 50.1528 120.534V111.244C50.1521 110.635 50.2825 110.031 50.5365 109.469C50.7904 108.906 51.1629 108.395 51.6325 107.966C52.1021 107.536 52.6595 107.196 53.2725 106.965C53.8856 106.735 54.5423 106.618 55.2047 106.622ZM35.4159 88.0405H44.7324C51.9797 88.0405 51.9797 97.3311 44.7324 97.3311H35.4159C28.1736 97.3311 28.1736 88.0405 35.4159 88.0405ZM19.8917 111.244C19.8877 110.636 20.015 110.033 20.2662 109.471C20.5174 108.908 20.8875 108.397 21.355 107.967C21.8226 107.537 22.3784 107.197 22.99 106.966C23.6017 106.735 24.2572 106.618 24.9184 106.622H35.0222C35.6847 106.618 36.3413 106.735 36.9544 106.965C37.5675 107.196 38.1249 107.536 38.5945 107.966C39.064 108.395 39.4365 108.906 39.6905 109.469C39.9445 110.031 40.0749 110.635 40.0742 111.244V120.534C40.0742 123.073 37.8081 125.156 35.0222 125.156H24.9184C23.5857 125.155 22.3079 124.668 21.3655 123.801C20.4231 122.935 19.893 121.76 19.8917 120.534V111.244ZM19.8917 139.069C19.8917 136.53 21.9609 134.447 24.55 134.447H45.4945C48.0836 134.447 50.1528 136.53 50.1528 139.069V148.359C50.1528 150.944 48.0836 153.028 45.4945 153.028H24.55C21.9609 153.028 19.8917 150.944 19.8917 148.359V139.069ZM50.1528 204.056C50.1528 206.595 48.0836 208.678 45.4945 208.678H24.55C21.9609 208.678 19.8917 206.595 19.8917 204.056V194.766C19.8917 192.227 21.9609 190.144 24.55 190.144H45.4945C48.0836 190.144 50.1528 192.227 50.1528 194.766V204.056ZM55.7699 180.853H24.3784C21.8903 180.853 19.8917 178.769 19.8917 176.231V166.94C19.8917 164.356 21.8903 162.272 24.3784 162.272H55.775C58.2379 162.272 60.2617 164.356 60.2617 166.94V176.231C60.2566 178.769 58.2379 180.853 55.7699 180.853ZM80.4391 204.056C80.4391 206.595 78.173 208.678 75.3871 208.678H65.3085C63.9731 208.678 62.6919 208.192 61.7452 207.326C60.7985 206.46 60.2633 205.284 60.2566 204.056V194.766C60.2559 194.157 60.3863 193.553 60.6403 192.991C60.8942 192.428 61.2667 191.917 61.7363 191.488C62.2059 191.058 62.7633 190.718 63.3764 190.487C63.9895 190.257 64.6461 190.14 65.3085 190.144H75.3871C76.0496 190.14 76.7062 190.257 77.3193 190.487C77.9324 190.718 78.4898 191.058 78.9594 191.488C79.4289 191.917 79.8014 192.428 80.0554 192.991C80.3094 193.553 80.4398 194.157 80.4391 194.766V204.056ZM85.491 180.853H75.3871C74.0556 180.848 72.7802 180.36 71.8386 179.494C70.8971 178.628 70.3658 177.455 70.3605 176.231V166.94C70.3605 164.356 72.6265 162.272 75.3871 162.272H85.491C88.2769 162.272 90.5429 164.356 90.5429 166.94V176.231C90.5429 178.769 88.2769 180.853 85.491 180.853ZM110.725 204.056C110.725 206.595 108.459 208.678 105.673 208.678H95.5948C94.2594 208.678 92.9782 208.192 92.0315 207.326C91.0848 206.46 90.5496 205.284 90.5429 204.056V194.766C90.5422 194.157 90.6726 193.553 90.9266 192.991C91.1805 192.428 91.553 191.917 92.0226 191.488C92.4922 191.058 93.0496 190.718 93.6627 190.487C94.2758 190.257 94.9324 190.14 95.5948 190.144H105.673C106.336 190.14 106.993 190.257 107.606 190.487C108.219 190.718 108.776 191.058 109.246 191.488C109.715 191.917 110.088 192.428 110.342 192.991C110.596 193.553 110.726 194.157 110.725 194.766V204.056ZM115.777 180.853H105.673C104.338 180.853 103.057 180.367 102.11 179.501C101.163 178.635 100.628 177.459 100.622 176.231V166.94C100.622 164.356 102.888 162.272 105.673 162.272H115.777C118.563 162.272 120.829 164.356 120.829 166.94V176.231C120.829 178.769 118.563 180.853 115.777 180.853ZM221.767 204.056C221.767 206.595 219.894 208.678 217.527 208.678H125.018C122.702 208.678 120.829 206.595 120.829 204.056V194.766C120.829 192.227 122.702 190.144 125.018 190.144H217.527C219.894 190.144 221.767 192.227 221.767 194.766V204.056ZM221.767 176.231V166.94C221.767 164.356 224.033 162.272 226.793 162.272H236.897C239.658 162.272 241.924 164.356 241.924 166.94V176.231C241.919 177.455 241.387 178.628 240.446 179.494C239.504 180.36 238.229 180.848 236.897 180.853H226.793C225.462 180.848 224.186 180.36 223.245 179.494C222.303 178.628 221.772 177.455 221.767 176.231ZM252.028 204.056C252.022 205.28 251.491 206.453 250.55 207.319C249.608 208.185 248.333 208.673 247.001 208.678H236.897C235.566 208.673 234.29 208.185 233.349 207.319C232.407 206.453 231.876 205.28 231.871 204.056V194.766C231.871 192.181 234.137 190.144 236.897 190.144H247.001C249.762 190.144 252.028 192.181 252.028 194.766V204.056ZM302.497 204.056C302.497 206.595 300.478 208.678 298.01 208.678H266.613C264.15 208.678 262.132 206.595 262.132 204.056V194.766C262.132 192.181 264.15 190.144 266.618 190.144H298.015C300.478 190.144 302.502 192.181 302.502 194.766V204.056H302.497ZM302.497 176.231C302.497 178.769 300.675 180.853 298.358 180.853H256.171C253.905 180.853 252.033 178.769 252.033 176.231V166.94C252.033 164.356 253.905 162.272 256.171 162.272H298.358C300.675 162.272 302.497 164.356 302.497 166.94V176.231ZM302.497 148.359C302.497 150.944 300.427 153.028 297.864 153.028H276.868C274.305 153.028 272.235 150.944 272.235 148.359V139.069C272.235 136.53 274.305 134.447 276.868 134.447H297.864C300.427 134.447 302.497 136.53 302.497 139.069V148.359ZM302.497 120.534C302.497 123.073 300.478 125.156 298.01 125.156H266.613C264.15 125.156 262.132 123.073 262.132 120.534V111.244C262.132 108.659 264.15 106.622 266.618 106.622H298.015C300.478 106.622 302.502 108.659 302.502 111.244V120.534H302.497Z" fill="url(#paint0_linear_8_37)"/>
<defs>
<linearGradient id="paint0_linear_8_37" x1="161.194" y1="78.75" x2="161.194" y2="217.969" gradientUnits="userSpaceOnUse">
<stop offset="0.270833" stop-color="white" stop-opacity="0"/>
<stop offset="1" stop-color="#E9E9E9"/>
</linearGradient>
</defs>
</svg>
